<svg width="38" height="25" viewBox="0 0 38 25" fill="none" xmlns="http://www.w3.org/2000/svg">
<rect width="38" height="25" fill="#E5E5E5"/>
<g id="Dashboard Bank Account - Dark">
<rect width="1409" height="774" transform="translate(-892 -278)" fill="url(#paint0_diamond_2_1127)"/>
<g id="Group 6">
<g id="Credit Limit">
<rect x="-256" y="-160" width="354" height="319" rx="10" fill="url(#paint1_diamond_2_1127)"/>
</g>
<g id="Group 7">
<g id="Frame 818">
<g id=".CC DBS" filter="url(#filter0_d_2_1127)">
<g clip-path="url(#clip0_2_1127)">
<rect x="-209" y="-109" width="260" height="147" rx="18.9873" fill="url(#paint2_linear_2_1127)"/>
<g id="Payment method icon">
<rect x="0.733398" y="1.25" width="37.2667" height="24.5" rx="4" fill="white" fill-opacity="0.1"/>
<g id="Mastercard">
<path id="Left" fill-rule="evenodd" clip-rule="evenodd" d="M19.7998 18.3844C18.5151 19.4129 16.851 20.0333 15.0332 20.0333C10.9647 20.0333 7.6665 16.9254 7.6665 13.0917C7.6665 9.25788 10.9647 6.14999 15.0332 6.14999C16.851 6.14999 18.5151 6.77044 19.7998 7.79887C21.0846 6.77044 22.7487 6.14999 24.5665 6.14999C28.635 6.14999 31.9332 9.25788 31.9332 13.0917C31.9332 16.9254 28.635 20.0333 24.5665 20.0333C22.7487 20.0333 21.0846 19.4129 19.7998 18.3844Z" fill="#ED0006"/>
<path id="Right" fill-rule="evenodd" clip-rule="evenodd" d="M19.7998 18.3848C21.3907 17.1115 22.4002 15.2127 22.4002 13.0917C22.4002 10.9707 21.3907 9.07184 19.7998 7.79854C21.0845 6.77031 22.7484 6.14999 24.5661 6.14999C28.6346 6.14999 31.9327 9.25788 31.9327 13.0917C31.9327 16.9254 28.6346 20.0333 24.5661 20.0333C22.7484 20.0333 21.0845 19.413 19.7998 18.3848Z" fill="#F9A000"/>
<path id="Middle" fill-rule="evenodd" clip-rule="evenodd" d="M19.7997 18.3845C21.3904 17.1112 22.3997 15.2125 22.3997 13.0917C22.3997 10.9708 21.3904 9.07217 19.7997 7.79887C18.209 9.07217 17.1997 10.9708 17.1997 13.0917C17.1997 15.2125 18.209 17.1112 19.7997 18.3845Z" fill="#FF5E00"/>
</g>
</g>
<g id=".CC DBS_2" filter="url(#filter1_d_2_1127)">
<rect x="-208" y="-110" width="258" height="147" rx="18.9873" fill="url(#paint3_linear_2_1127)"/>
<g id="Payment method icon_2">
<rect x="0.120117" y="0.25" width="36.98" height="24.5" rx="4" fill="white" fill-opacity="0.1"/>
<g id="Mastercard_2">
<path id="Left_2" fill-rule="evenodd" clip-rule="evenodd" d="M19.04 17.3844C17.7651 18.4129 16.1139 19.0333 14.31 19.0333C10.2728 19.0333 7 15.9254 7 12.0917C7 8.25788 10.2728 5.14999 14.31 5.14999C16.1139 5.14999 17.7651 5.77044 19.04 6.79887C20.3149 5.77044 21.9661 5.14999 23.77 5.14999C27.8072 5.14999 31.08 8.25788 31.08 12.0917C31.08 15.9254 27.8072 19.0333 23.77 19.0333C21.9661 19.0333 20.3149 18.4129 19.04 17.3844Z" fill="#ED0006"/>
<path id="Right_2" fill-rule="evenodd" clip-rule="evenodd" d="M19.04 17.3848C20.6187 16.1115 21.6204 14.2127 21.6204 12.0917C21.6204 9.97066 20.6187 8.07184 19.04 6.79854C20.3149 5.77031 21.966 5.14999 23.7696 5.14999C27.8068 5.14999 31.0796 8.25788 31.0796 12.0917C31.0796 15.9254 27.8068 19.0333 23.7696 19.0333C21.966 19.0333 20.3149 18.413 19.04 17.3848Z" fill="#F9A000"/>
<path id="Middle_2" fill-rule="evenodd" clip-rule="evenodd" d="M19.04 17.3845C20.6184 16.1112 21.62 14.2125 21.62 12.0917C21.62 9.97085 20.6184 8.07217 19.04 6.79887C17.4615 8.07217 16.46 9.97085 16.46 12.0917C16.46 14.2125 17.4615 16.1112 19.04 17.3845Z" fill="#FF5E00"/>
</g>
</g>
</g>
</g>
</g>
</g>
</g>
</g>
</g>
<defs>
<filter id="filter0_d_2_1127" x="-216.595" y="-114.696" width="290.38" height="177.38" filterUnits="userSpaceOnUse" color-interpolation-filters="sRGB">
<feFlood flood-opacity="0" result="BackgroundImageFix"/>
<feColorMatrix in="SourceAlpha" type="matrix" values="0 0 0 0 0 0 0 0 0 0 0 0 0 0 0 0 0 0 127 0" result="hardAlpha"/>
<feOffset dx="7.59494" dy="9.49367"/>
<feGaussianBlur stdDeviation="7.59494"/>
<feColorMatrix type="matrix" values="0 0 0 0 0 0 0 0 0 0 0 0 0 0 0 0 0 0 0.05 0"/>
<feBlend mode="normal" in2="BackgroundImageFix" result="effect1_dropShadow_2_1127"/>
<feBlend mode="normal" in="SourceGraphic" in2="effect1_dropShadow_2_1127" result="shape"/>
</filter>
<filter id="filter1_d_2_1127" x="-215.595" y="-115.696" width="288.38" height="177.38" filterUnits="userSpaceOnUse" color-interpolation-filters="sRGB">
<feFlood flood-opacity="0" result="BackgroundImageFix"/>
<feColorMatrix in="SourceAlpha" type="matrix" values="0 0 0 0 0 0 0 0 0 0 0 0 0 0 0 0 0 0 127 0" result="hardAlpha"/>
<feOffset dx="7.59494" dy="9.49367"/>
<feGaussianBlur stdDeviation="7.59494"/>
<feColorMatrix type="matrix" values="0 0 0 0 0 0 0 0 0 0 0 0 0 0 0 0 0 0 0.05 0"/>
<feBlend mode="normal" in2="BackgroundImageFix" result="effect1_dropShadow_2_1127"/>
<feBlend mode="normal" in="SourceGraphic" in2="effect1_dropShadow_2_1127" result="shape"/>
</filter>
<radialGradient id="paint0_diamond_2_1127" cx="0" cy="0" r="1" gradientUnits="userSpaceOnUse" gradientTransform="translate(630.5 348.5) rotate(80.1342) scale(431.887 786.213)">
<stop stop-color="#255066"/>
<stop offset="0.755208" stop-color="#255066" stop-opacity="0.97"/>
<stop offset="1" stop-color="#255066" stop-opacity="0.96"/>
</radialGradient>
<radialGradient id="paint1_diamond_2_1127" cx="0" cy="0" r="1" gradientUnits="userSpaceOnUse" gradientTransform="translate(-79 -0.5) scale(177 159.5)">
<stop stop-color="white"/>
<stop offset="0.5" stop-color="#F5F5F5"/>
<stop offset="1" stop-color="#EEEEEE"/>
</radialGradient>
<linearGradient id="paint2_linear_2_1127" x1="-79" y1="-109" x2="-79" y2="38" gradientUnits="userSpaceOnUse">
<stop offset="0.617886" stop-color="#E8812B"/>
<stop offset="0.989078" stop-color="#F79748"/>
</linearGradient>
<linearGradient id="paint3_linear_2_1127" x1="-79" y1="-110" x2="-79" y2="37" gradientUnits="userSpaceOnUse">
<stop offset="0.0320721" stop-color="#EC9044"/>
<stop offset="0.966102" stop-color="#E8832F"/>
</linearGradient>
<clipPath id="clip0_2_1127">
<rect x="-209" y="-109" width="260" height="147" rx="18.9873" fill="white"/>
</clipPath>
</defs>
</svg>
