<svg width="17" height="20" viewBox="0 0 17 20" fill="none" xmlns="http://www.w3.org/2000/svg">
<g id="PayPass icon" clip-path="url(#clip0_308_522)">
<path id="Vector" d="M12.3597 1.33333C13.9201 3.94046 14.9397 7.30621 14.9397 10.3167C14.9397 13.3271 13.9201 15.8762 12.3597 18.4833M8.91969 2.96666C10.1368 5.00022 10.6397 7.96851 10.6397 10.3167C10.6397 12.6648 10.1368 14.8164 8.91969 16.85M4.61969 4.59999C5.49974 6.08606 6.33969 7.78404 6.33969 9.49999C6.33969 11.216 5.49974 12.9139 4.61969 14.4M1.17969 7.04999C1.81393 7.97596 2.03969 9.22519 2.03969 10.3167C2.03969 11.4081 1.81393 11.8407 1.17969 12.7667" stroke="white" stroke-width="2.44123" stroke-linecap="round"/>
</g>
<defs>
<clipPath id="clip0_308_522">
<rect width="16.34" height="18.7833" fill="white" transform="translate(0.319824 0.516663)"/>
</clipPath>
</defs>
</svg>
